<svg xmlns="http://www.w3.org/2000/svg" width="414" height="286.79" viewBox="0 0 414 286.79">
  <g id="noun-medical-2437354" transform="translate(-6.229 -83.169)">
    <path id="Path_13648" data-name="Path 13648" d="M216.34,178.587H188.622V150.821a5.787,5.787,0,0,0-5.787-5.787H151.913a5.787,5.787,0,0,0-5.787,5.787v27.766H118.394a5.787,5.787,0,0,0-5.787,5.787V215.34a5.787,5.787,0,0,0,5.787,5.787h27.733v27.733a5.787,5.787,0,0,0,5.787,5.787h30.922a5.787,5.787,0,0,0,5.787-5.787V221.127H216.34a5.787,5.787,0,0,0,5.787-5.787V184.373A5.787,5.787,0,0,0,216.34,178.587Zm-5.787,30.967H182.835a5.787,5.787,0,0,0-5.787,5.787v27.733H157.7V215.34a5.787,5.787,0,0,0-5.787-5.787H124.181V190.16h27.733a5.787,5.787,0,0,0,5.787-5.787V156.608h19.348v27.766a5.787,5.787,0,0,0,5.787,5.787h27.718v19.393Z" transform="translate(-17.917 -10.202)" fill="#ffbb1b" stroke="#fff" stroke-width="6"/>
    <path id="Path_13649" data-name="Path 13649" d="M412.218,201.486a16.959,16.959,0,0,0-12.066-5.009H289.685V108.231a22.071,22.071,0,0,0-22.029-22.062H31.244A22.063,22.063,0,0,0,9.229,108.231V261.746a22.063,22.063,0,0,0,22.015,22.062H50.6L53.233,320.9a5.787,5.787,0,0,0,9.017,4.381l32.031-21.7,29.228-19.769h95.143v36.547a17.1,17.1,0,0,0,17.079,17.09h99.719L377.6,365.964a5.787,5.787,0,0,0,9.017-4.384l1.709-24.135h11.827a17.1,17.1,0,0,0,17.078-17.09V213.567A16.966,16.966,0,0,0,412.218,201.486ZM121.737,272.235a5.789,5.789,0,0,0-3.242.994l-30.7,20.765L64.066,310.066,61.76,277.61a5.787,5.787,0,0,0-5.772-5.376H31.244A10.477,10.477,0,0,1,20.8,261.745V108.231A10.477,10.477,0,0,1,31.244,97.742H267.655a10.484,10.484,0,0,1,10.456,10.489v93.713c-.006.107-.017.212-.017.32v59.482a10.476,10.476,0,0,1-10.44,10.489H121.737Zm283.919,48.12a5.585,5.585,0,0,1-5.5,5.516H382.94a5.786,5.786,0,0,0-5.771,5.364l-1.389,19.52-35.312-23.89a5.789,5.789,0,0,0-3.242-.994H235.733a5.585,5.585,0,0,1-5.506-5.517V283.809h37.428a22.071,22.071,0,0,0,22.029-22.062v-53.7H400.151a5.532,5.532,0,0,1,5.5,5.515v106.79Z" fill="#ffbb1b" stroke="#fff" stroke-width="6"/>
  </g>
</svg>
