<svg xmlns="http://www.w3.org/2000/svg" width="196" height="134.889" viewBox="0 0 196 134.889">
  <g id="noun-medical-2437354" transform="translate(-9.229 -86.169)">
    <path id="Path_13648" data-name="Path 13648" d="M162.439,161.152H149.124V147.814a2.78,2.78,0,0,0-2.78-2.78H131.489a2.78,2.78,0,0,0-2.78,2.78v13.338H115.387a2.78,2.78,0,0,0-2.78,2.78v14.876a2.78,2.78,0,0,0,2.78,2.78h13.323v13.323a2.78,2.78,0,0,0,2.78,2.78h14.855a2.78,2.78,0,0,0,2.78-2.78V181.588h13.315a2.78,2.78,0,0,0,2.78-2.78V163.932A2.78,2.78,0,0,0,162.439,161.152Zm-2.78,14.876H146.344a2.78,2.78,0,0,0-2.78,2.78v13.323h-9.295V178.808a2.78,2.78,0,0,0-2.78-2.78H118.167v-9.316h13.323a2.78,2.78,0,0,0,2.78-2.78V150.594h9.295v13.338a2.78,2.78,0,0,0,2.78,2.78h13.315v9.316Z" transform="translate(-62.323 -35.488)" fill="#ffbb1b"/>
    <path id="Path_13649" data-name="Path 13649" d="M202.822,141.566a8.147,8.147,0,0,0-5.8-2.406H143.958V96.768a10.6,10.6,0,0,0-10.583-10.6H19.8a10.6,10.6,0,0,0-10.576,10.6v73.747a10.6,10.6,0,0,0,10.576,10.6h9.3l1.265,17.816a2.78,2.78,0,0,0,4.332,2.1L50.088,190.61l14.041-9.5h45.706V198.67a8.217,8.217,0,0,0,8.2,8.21h47.9l20.247,13.7a2.78,2.78,0,0,0,4.332-2.106l.821-11.594h5.681a8.216,8.216,0,0,0,8.2-8.21v-51.3A8.15,8.15,0,0,0,202.822,141.566ZM63.277,175.554a2.781,2.781,0,0,0-1.558.477l-14.748,9.975-11.4,7.721-1.108-15.592a2.78,2.78,0,0,0-2.773-2.583H19.8a5.033,5.033,0,0,1-5.016-5.039V96.767A5.033,5.033,0,0,1,19.8,91.728h113.57a5.036,5.036,0,0,1,5.023,5.039v45.019c0,.051-.008.1-.008.154v28.575a5.033,5.033,0,0,1-5.015,5.039h-70.1ZM199.67,198.67a2.683,2.683,0,0,1-2.645,2.65h-8.268a2.78,2.78,0,0,0-2.772,2.577l-.667,9.377L168.354,201.8a2.781,2.781,0,0,0-1.558-.477H118.04a2.683,2.683,0,0,1-2.645-2.65V181.113h17.98a10.6,10.6,0,0,0,10.583-10.6V144.72h53.067a2.658,2.658,0,0,1,2.644,2.649v51.3Z" fill="#ffbb1b"/>
  </g>
</svg>
