<svg xmlns="http://www.w3.org/2000/svg" width="103.243" height="107.062" viewBox="0 0 103.243 107.062">
  <path id="noun-covid-3914263" d="M115.006,93.324a7.517,7.517,0,0,0-5.312,2.324L98.075,89.506a35.19,35.19,0,0,0,3.32-9.959l3.652.332a5.456,5.456,0,0,0,1.162,2.656,5.522,5.522,0,0,0,3.486,1.826h.5a5.2,5.2,0,0,0,5.146-4.648,5.185,5.185,0,0,0-8.465-4.482,6.5,6.5,0,0,0-1.328,1.66l-3.818-.332c0-.83.166-1.66.166-2.49a36.272,36.272,0,0,0-1.66-10.457l2.324-.5a7.446,7.446,0,1,0-.5-2.822l-2.988,1A33.842,33.842,0,0,0,88.78,48.009L91.6,45.022a6.617,6.617,0,0,0,3.984,1.162,7.3,7.3,0,1,0-7.3-7.3,7.263,7.263,0,0,0,1.328,4.15l-3.32,3.32a33.748,33.748,0,0,0-12.117-4.814l.664-4.98a5.011,5.011,0,0,0,4.316-4.98,5.146,5.146,0,1,0-10.291,0,4.913,4.913,0,0,0,3.154,4.648l-.664,4.814a22.246,22.246,0,0,0-3.32-.166A31.625,31.625,0,0,0,59.069,42.2l-2.49-10.457a7.258,7.258,0,1,0-2.988.664h.332l2.49,10.623a32.218,32.218,0,0,0-12.449,8.3l-6.141-5.81A6.5,6.5,0,0,0,39.316,41.2a7.3,7.3,0,1,0-7.3,7.3,6.692,6.692,0,0,0,3.652-1l6.473,5.975a29.986,29.986,0,0,0-4.98,8.631l-6.141-2.49v-.5a5.975,5.975,0,1,0-5.975,5.975,6.3,6.3,0,0,0,5.146-2.822l6.141,2.49a31.807,31.807,0,0,0-1.494,9.793v1.162l-6.141.5a5.108,5.108,0,0,0-4.648-2.988,5.146,5.146,0,1,0,0,10.291,5.032,5.032,0,0,0,4.98-4.482l5.975-.5a32.751,32.751,0,0,0,4.98,13.777l-4.316,3.984a4.871,4.871,0,0,0-2.656-.664,5.146,5.146,0,1,0,5.146,5.146,3.811,3.811,0,0,0-.664-2.324l3.984-3.818a33.559,33.559,0,0,0,19.918,12.615L59.9,111.084h-.5a5.146,5.146,0,1,0,5.146,5.146,4.947,4.947,0,0,0-1.992-3.984l1.494-4.316a32.233,32.233,0,0,0,3.984.332,34.247,34.247,0,0,0,13.113-2.656l2.324,5.81a7.2,7.2,0,1,0,3.818-1.162,2.825,2.825,0,0,0-1.162.166L83.8,104.113A34.034,34.034,0,0,0,96.581,92.162L108.034,98.3a6.66,6.66,0,0,0-.5,2.49,7.305,7.305,0,1,0,7.469-7.469Zm-4.98-16.1h.166a1.743,1.743,0,0,1,1.494.83,2.8,2.8,0,0,1,.5,1.66,2.228,2.228,0,0,1-2.49,1.992,1.743,1.743,0,0,1-1.494-.83,2.8,2.8,0,0,1-.5-1.66A2.327,2.327,0,0,1,110.026,77.223Zm-1-20.914a4.482,4.482,0,1,1-4.482,4.482A4.463,4.463,0,0,1,109.03,56.309ZM95.419,34.565a4.482,4.482,0,1,1-4.482,4.482A4.572,4.572,0,0,1,95.419,34.565ZM32.013,45.52a4.482,4.482,0,1,1,4.482-4.482A4.463,4.463,0,0,1,32.013,45.52Zm-7.137,16.6a3.154,3.154,0,0,1,0-6.307,3.265,3.265,0,0,1,3.154,3.154A3.052,3.052,0,0,1,24.875,62.118Zm-1,18.258A2.324,2.324,0,1,1,26.2,78.053,2.269,2.269,0,0,1,23.88,80.377Zm8.963,22.574a2.324,2.324,0,1,1,2.324-2.324A2.269,2.269,0,0,1,32.843,102.951Zm26.724,15.437a2.324,2.324,0,1,1,2.324-2.324A2.374,2.374,0,0,1,59.567,118.387Zm32.2-1a4.482,4.482,0,1,1-4.482-4.482A4.463,4.463,0,0,1,91.768,117.392ZM71.849,31.577A2.324,2.324,0,1,1,74.173,33.9,2.374,2.374,0,0,1,71.849,31.577ZM53.591,29.585A4.482,4.482,0,1,1,58.073,25.1,4.463,4.463,0,0,1,53.591,29.585ZM68.2,105.109A30.707,30.707,0,1,1,98.905,74.4,30.744,30.744,0,0,1,68.2,105.109Zm46.808,0a4.482,4.482,0,1,1,4.482-4.482A4.572,4.572,0,0,1,115.006,105.109Z" transform="translate(-18.9 -17.8)" fill="#734fb1"/>
</svg>
