<svg xmlns="http://www.w3.org/2000/svg" width="189" height="188.999" viewBox="0 0 189 188.999">
  <g id="noun-warning-sign-1838320" transform="translate(-0.03 0)">
    <path id="Path_13679" data-name="Path 13679" d="M94.53,189a3.141,3.141,0,0,1-2.227-.923L.953,96.727a3.146,3.146,0,0,1,0-4.454L92.3.923a3.146,3.146,0,0,1,4.454,0l91.349,91.349a3.146,3.146,0,0,1,0,4.454L96.757,188.076A3.141,3.141,0,0,1,94.53,189ZM7.635,94.5l86.892,86.9,86.9-86.9L94.527,7.6Z" transform="translate(0 0)" fill="#ffbb1b"/>
    <path id="Path_13680" data-name="Path 13680" d="M81.63,157.2a3.141,3.141,0,0,1-2.227-.923L6.953,83.827a3.146,3.146,0,0,1,0-4.454L79.4,6.923a3.146,3.146,0,0,1,4.454,0l72.449,72.449a3.146,3.146,0,0,1,0,4.454L83.857,156.276A3.141,3.141,0,0,1,81.63,157.2Zm-68-75.6,67.992,68,68-68-68-68Z" transform="translate(12.9 12.9)" fill="#ffbb1b"/>
    <path id="Path_13681" data-name="Path 13681" d="M39.619,83.3H33.342a6.32,6.32,0,0,1-6.313-6.313V20.313A6.322,6.322,0,0,1,33.342,14h6.278a6.319,6.319,0,0,1,6.309,6.313V76.987A6.315,6.315,0,0,1,39.619,83.3Zm-6.275-63-.013,56.687,6.3.013,0-56.687Z" transform="translate(58.048 30.1)" fill="#ffbb1b"/>
    <path id="Path_13682" data-name="Path 13682" d="M42.78,57.9H30.18a3.149,3.149,0,0,1-3.15-3.15V42.15A3.149,3.149,0,0,1,30.18,39h12.6a3.149,3.149,0,0,1,3.15,3.15v12.6A3.149,3.149,0,0,1,42.78,57.9Zm-9.45-6.3h6.3V45.3h-6.3Z" transform="translate(58.05 83.85)" fill="#ffbb1b"/>
  </g>
</svg>
