<svg xmlns="http://www.w3.org/2000/svg" width="98.738" height="84.911" viewBox="0 0 98.738 84.911">
  <g id="noun-first-aid-kit-5065850" transform="translate(-1.25 -5.334)">
    <path id="Path_13619" data-name="Path 13619" d="M54.824,36.2H46.929V28.358a1.605,1.605,0,0,0-1.605-1.605H32.056a1.605,1.605,0,0,0-1.605,1.605V36.2H22.556a1.605,1.605,0,0,0-1.605,1.605v13.2a1.605,1.605,0,0,0,1.605,1.605h7.894v7.846a1.605,1.605,0,0,0,1.605,1.605H45.324a1.605,1.605,0,0,0,1.605-1.605V52.613h7.894a1.605,1.605,0,0,0,1.605-1.605v-13.2A1.605,1.605,0,0,0,54.824,36.2ZM53.218,49.4H45.324a1.605,1.605,0,0,0-1.605,1.605v7.846H33.662V51.007A1.605,1.605,0,0,0,32.056,49.4H24.162V39.414h7.894a1.605,1.605,0,0,0,1.605-1.605V29.964H43.718v7.844a1.605,1.605,0,0,0,1.605,1.605h7.894Z" transform="translate(11.929 12.969)" fill="#734fb1"/>
    <path id="Path_13620" data-name="Path 13620" d="M98.382,19.528H68.359V6.939a1.605,1.605,0,0,0-1.605-1.605H34.484a1.605,1.605,0,0,0-1.605,1.605V19.528H2.855A1.605,1.605,0,0,0,1.25,21.134V88.64a1.605,1.605,0,0,0,1.605,1.605H98.382a1.605,1.605,0,0,0,1.605-1.605V21.134A1.605,1.605,0,0,0,98.382,19.528Zm-1.605,10.8H89.529V22.739h7.247ZM86.318,22.739V35.3H73.755V22.739ZM70.544,30.325H30.693V22.739H70.544ZM36.091,8.545H65.15V19.528H36.091ZM27.482,22.739V35.3H14.919V22.739Zm-15.774,0v7.586H4.461V22.739Zm-7.247,64.3v-53.5h7.247v3.372a1.605,1.605,0,0,0,1.605,1.605H29.088a1.605,1.605,0,0,0,1.605-1.605V33.536H70.544v3.372a1.605,1.605,0,0,0,1.605,1.605H87.924a1.605,1.605,0,0,0,1.605-1.605V33.536h7.247V87.031Z" transform="translate(0 0)" fill="#734fb1"/>
    <rect id="Rectangle_1890" data-name="Rectangle 1890" width="3.211" height="32.344" transform="translate(85.848 47.74)" fill="#734fb1"/>
    <rect id="Rectangle_1891" data-name="Rectangle 1891" width="3.211" height="32.344" transform="translate(12.179 47.74)" fill="#734fb1"/>
  </g>
</svg>
