<svg xmlns="http://www.w3.org/2000/svg" xmlns:xlink="http://www.w3.org/1999/xlink" width="239" height="203" viewBox="0 0 239 203">
  <defs>
    <clipPath id="clip-path">
      <rect id="Rectangle_1897" data-name="Rectangle 1897" width="239" height="203" transform="translate(802 9346.202)" fill="#fff" stroke="#707070" stroke-width="1"/>
    </clipPath>
  </defs>
  <g id="Mask_Group_1091" data-name="Mask Group 1091" transform="translate(-802 -9346.202)" clip-path="url(#clip-path)">
    <g id="noun-people-group-1012237" transform="translate(829.655 9365.141)">
      <path id="Path_13633" data-name="Path 13633" d="M63.462,38.013A24.724,24.724,0,1,0,38.737,62.738,24.724,24.724,0,0,0,63.462,38.013Zm-44.505,0A19.783,19.783,0,1,1,38.74,57.8,19.8,19.8,0,0,1,18.956,38.013Z" transform="translate(-0.921 7.087)" fill="#734fb1"/>
      <path id="Path_13634" data-name="Path 13634" d="M115.319,38.013A24.724,24.724,0,1,0,90.594,62.738,24.724,24.724,0,0,0,115.319,38.013Zm-44.508,0A19.783,19.783,0,1,1,90.594,57.8,19.8,19.8,0,0,1,70.811,38.013Z" transform="translate(74.696 7.087)" fill="#734fb1"/>
      <path id="Path_13635" data-name="Path 13635" d="M183.562,46.264H164.393a27.931,27.931,0,0,0-3.351.2,2.489,2.489,0,0,0-2.212,2.461v.032a2.448,2.448,0,0,0,2.773,2.426,22.224,22.224,0,0,1,2.79-.179h19.171a23.285,23.285,0,0,1,23.284,23.284v42.453a9.493,9.493,0,0,1-9.494,9.493h-3.776v45.432a9.493,9.493,0,0,1-9.493,9.494H163.865a9.493,9.493,0,0,1-9.493-9.494V126.433H150.6a9.467,9.467,0,0,1-6.738-2.817,15.666,15.666,0,0,0,7.819-13.545V63.258a30.913,30.913,0,0,0-30.87-30.87H99.672A30.955,30.955,0,0,0,68.8,63.258v46.814a15.784,15.784,0,0,0,7.819,13.545,9.457,9.457,0,0,1-6.738,2.817H66.105v45.432a9.493,9.493,0,0,1-9.493,9.494H36.391a9.493,9.493,0,0,1-9.494-9.494V126.433H23.121a9.493,9.493,0,0,1-9.494-9.493V74.489A23.286,23.286,0,0,1,36.914,51.2H56.083a22.891,22.891,0,0,1,3.555.28,2.473,2.473,0,0,0,2.906-2.416h0a2.482,2.482,0,0,0-2.092-2.446,27.229,27.229,0,0,0-4.368-.359H36.912A28.226,28.226,0,0,0,8.687,74.487V116.94a14.456,14.456,0,0,0,13.267,14.388v40.538A14.432,14.432,0,0,0,36.386,186.3H56.607a14.432,14.432,0,0,0,14.432-14.432V131.327a14.386,14.386,0,0,0,10.43-5.895,15.444,15.444,0,0,0,1.954.268v44.938A15.661,15.661,0,0,0,99.084,186.3h22.3a15.661,15.661,0,0,0,15.661-15.661V125.7a15.506,15.506,0,0,0,1.954-.268,14.386,14.386,0,0,0,10.43,5.895v40.538A14.432,14.432,0,0,0,163.86,186.3h20.221a14.432,14.432,0,0,0,14.432-14.432V131.327A14.45,14.45,0,0,0,211.78,116.94V74.489A28.212,28.212,0,0,0,183.562,46.264Zm-47.541,74.53h-3.909v49.845a10.735,10.735,0,0,1-10.723,10.72h-22.3a10.735,10.735,0,0,1-10.723-10.72V120.794H84.463A10.735,10.735,0,0,1,73.74,110.072V63.258A25.959,25.959,0,0,1,99.672,37.329h21.14a25.959,25.959,0,0,1,25.931,25.929v46.814A10.735,10.735,0,0,1,136.021,120.794Z" transform="translate(-8.687 34.937)" fill="#734fb1"/>
      <path id="Path_13636" data-name="Path 13636" d="M93.436,32.264A27.264,27.264,0,1,0,66.173,59.525,27.263,27.263,0,0,0,93.436,32.264Zm-49.586,0A22.323,22.323,0,1,1,66.173,54.586,22.349,22.349,0,0,1,43.85,32.264Z" transform="translate(35.382 -5)" fill="#734fb1"/>
    </g>
  </g>
</svg>
