<svg xmlns="http://www.w3.org/2000/svg" width="138.154" height="124.351" viewBox="0 0 138.154 124.351">
  <g id="noun-mental-health-4382374" transform="translate(-0.005 -3)">
    <path id="Path_13653" data-name="Path 13653" d="M132.762,34.726a16.864,16.864,0,0,0,1.366-2.347,11.053,11.053,0,0,0,.534-1.2,18.49,18.49,0,0,0,1.2-6.305A17.289,17.289,0,0,0,118.586,7.606c-.414,0-.854.025-1.294.051-.4.03-.781.081-1.124.131a16.407,16.407,0,0,0-2.812.624A16.078,16.078,0,0,0,92.116,5.9a15.072,15.072,0,0,0-2.48-1.421,16.12,16.12,0,0,0-22.141,9.872,39.378,39.378,0,0,0-55.817.5,40.7,40.7,0,0,0,0,57.056L65.5,126.356a3.454,3.454,0,0,0,5.722-1.446c.023.016.041.037.064.055a11.5,11.5,0,0,0,18.51-9.128,16.14,16.14,0,0,0,16.119-16.119,16.14,16.14,0,0,0,16.12-16.12v-.164a16.145,16.145,0,0,0,13.817-15.956,15.63,15.63,0,0,0-.081-1.57,16.237,16.237,0,0,0-1.28-4.916,22.286,22.286,0,0,0-1.37-2.545,16.1,16.1,0,0,0-.364-23.719ZM66.774,121.09,14.961,68.671a36.08,36.08,0,0,1,0-50.583,34.823,34.823,0,0,1,49.809,0l2.008,2.036V121.09Zm61.791-64.858-.023.025a11.429,11.429,0,0,1-4.578,1.842,2.3,2.3,0,0,0,.38,4.583,2.159,2.159,0,0,0,.382-.032,15.937,15.937,0,0,0,4.578-1.518c.428.712.864,1.483.988,1.729a11.708,11.708,0,0,1,.9,3.5v.03a10.829,10.829,0,0,1,.055,1.089A11.565,11.565,0,0,1,119.63,78.992a11.424,11.424,0,0,1-10.551-7.226,13.757,13.757,0,0,0,7.852-4.859,2.3,2.3,0,0,0-3.6-2.879,9.211,9.211,0,0,1-12.944,1.439,2.3,2.3,0,1,0-2.878,3.6,13.7,13.7,0,0,0,6.752,2.867,15.993,15.993,0,0,0,13.156,11.493c0,.062.016.117.016.18a11.528,11.528,0,0,1-11.514,11.514c-.269,0-.481-.048-.735-.064A16.055,16.055,0,0,0,96.224,84.98a13.72,13.72,0,0,0,2.789-8.29,2.3,2.3,0,1,0-4.606,0A9.211,9.211,0,0,1,85.2,85.9a2.3,2.3,0,1,0,0,4.606,13.7,13.7,0,0,0,7.1-1.99,11.468,11.468,0,0,1,8.82,9.091l.012.032a10.989,10.989,0,0,1,.184,2.077A11.528,11.528,0,0,1,89.8,111.231a11.89,11.89,0,0,1-2.218-.212h-.012a11.406,11.406,0,0,1-4.145-1.7,2.3,2.3,0,0,0-2.549,3.832,15.935,15.935,0,0,0,4.262,2.008c.021.23.046.447.046.691a6.892,6.892,0,0,1-11.122,5.458,6.747,6.747,0,0,1-2.685-5.471V19.12A11.514,11.514,0,0,1,87.729,8.665c.327.15.629.341.935.518a16.147,16.147,0,0,0-3.33,8A8.863,8.863,0,0,0,81,19.516a2.3,2.3,0,1,0,3.256,3.256,4.714,4.714,0,0,1,6.512,0,2.3,2.3,0,1,0,3.256-3.256,8.831,8.831,0,0,0-4.042-2.252A11.532,11.532,0,0,1,93.6,10.586c.021-.016.046-.021.064-.039a11.39,11.39,0,0,1,7.654-2.941,11.528,11.528,0,0,1,9.4,4.873h0a11.415,11.415,0,0,1,2.112,6.641,2.3,2.3,0,1,0,4.606,0,16.007,16.007,0,0,0-1.451-6.609c.274-.055.541-.127.82-.161s.534-.081.792-.1c.325-.021.666-.041.99-.041a12.681,12.681,0,0,1,12.665,12.665,13.869,13.869,0,0,1-.921,4.753,7.621,7.621,0,0,1-.352.755,12.1,12.1,0,0,1-1.089,1.815,16.426,16.426,0,0,0-14.353.336,11.433,11.433,0,0,0-6.312-1.9,2.3,2.3,0,1,0,0,4.606,6.908,6.908,0,0,1,6.908,6.908,2.3,2.3,0,1,0,4.606,0,11.424,11.424,0,0,0-1.794-6.112,11.689,11.689,0,0,1,10.132.91c.025.016.053.016.078.03s.053.067.09.09a11.491,11.491,0,0,1,.325,19.166Z" transform="translate(0 0)" fill="#31552f"/>
    <path id="Path_13654" data-name="Path 13654" d="M50.119,19A16.14,16.14,0,0,0,34,35.12a2.3,2.3,0,1,0,4.606,0A11.528,11.528,0,0,1,50.12,23.606a2.3,2.3,0,0,0,0-4.606Z" transform="translate(44.288 20.845)" fill="#31552f"/>
    <path id="Path_13655" data-name="Path 13655" d="M34.648,7A30.153,30.153,0,0,0,13,16.121,31.244,31.244,0,0,0,4.007,36.846a2.3,2.3,0,0,0,2.215,2.393h.1a2.3,2.3,0,0,0,2.3-2.206A26.648,26.648,0,0,1,16.3,19.354a25.591,25.591,0,0,1,18.351-7.749,2.3,2.3,0,0,0,0-4.606Z" transform="translate(5.211 5.212)" fill="#31552f"/>
    <path id="Path_13656" data-name="Path 13656" d="M9.008,24.721a2.3,2.3,0,1,0-4.431,1.248q.355,1.26.815,2.489A2.3,2.3,0,0,0,7.548,29.95a2.381,2.381,0,0,0,.811-.145A2.3,2.3,0,0,0,9.7,26.837C9.441,26.141,9.211,25.432,9.008,24.721Z" transform="translate(5.815 26.014)" fill="#31552f"/>
  </g>
</svg>
