<svg xmlns="http://www.w3.org/2000/svg" width="149.205" height="178.215" viewBox="0 0 149.205 178.215">
  <g id="noun-health-shield-3807304" transform="translate(-8 -1)">
    <path id="Path_13664" data-name="Path 13664" d="M156.12,40.624,83.591,1.251a2.077,2.077,0,0,0-1.977,0L9.084,40.624A2.072,2.072,0,0,0,8,42.445V70.014A116.892,116.892,0,0,0,81.832,179.067a2.081,2.081,0,0,0,1.54,0A116.892,116.892,0,0,0,157.2,70.014V42.445a2.072,2.072,0,0,0-1.084-1.821Zm-3.061,29.39A112.756,112.756,0,0,1,82.6,174.907,112.756,112.756,0,0,1,12.145,70.014V43.678L82.6,5.43l70.457,38.249ZM81.613,10.683,17.373,45.556a2.072,2.072,0,0,0-1.084,1.822V70.014A109.079,109.079,0,0,0,81.774,170.061a2.077,2.077,0,0,0,1.655,0A109.079,109.079,0,0,0,148.914,70.014V47.377a2.072,2.072,0,0,0-1.084-1.821L83.591,10.683A2.076,2.076,0,0,0,81.613,10.683ZM144.77,48.61v21.4A104.931,104.931,0,0,1,82.6,165.9,104.931,104.931,0,0,1,20.434,70.014V48.61L82.6,14.863ZM45.3,83.89a37.3,37.3,0,1,0,37.3-37.3A37.3,37.3,0,0,0,45.3,83.89Zm70.457,0A33.156,33.156,0,1,1,82.6,50.734,33.156,33.156,0,0,1,115.758,83.89ZM74.313,65.24V75.6H63.952a2.072,2.072,0,0,0-2.072,2.072V90.107a2.072,2.072,0,0,0,2.072,2.072H74.313v10.361a2.072,2.072,0,0,0,2.072,2.072H88.819a2.072,2.072,0,0,0,2.072-2.072V92.179h10.361a2.072,2.072,0,0,0,2.072-2.072V77.674a2.072,2.072,0,0,0-2.072-2.072H90.891V65.24a2.072,2.072,0,0,0-2.072-2.072H76.385A2.072,2.072,0,0,0,74.313,65.24Zm4.145,12.434V67.312h8.289V77.674a2.072,2.072,0,0,0,2.072,2.072H99.18v8.289H88.819a2.072,2.072,0,0,0-2.072,2.072v10.361H78.457V90.107a2.072,2.072,0,0,0-2.072-2.072H66.024V79.746H76.385A2.072,2.072,0,0,0,78.457,77.674Z" transform="translate(0 0)" fill="#ffbb1b"/>
  </g>
</svg>
