<svg xmlns="http://www.w3.org/2000/svg" width="158.645" height="158.646" viewBox="0 0 158.645 158.646">
  <g id="noun-medical-education-4037077" transform="translate(-2 -2)">
    <path id="Path_13637" data-name="Path 13637" d="M15.22,2A13.247,13.247,0,0,0,2,15.223V115.7a13.259,13.259,0,0,0,13.22,13.22,2.644,2.644,0,0,0,0-5.288A7.892,7.892,0,0,1,7.288,115.7V15.223A7.855,7.855,0,0,1,15.22,7.291h132.2a7.855,7.855,0,0,1,7.932,7.932v95.187a2.644,2.644,0,1,0,5.288,0V15.223A13.249,13.249,0,0,0,147.425,2ZM46.949,123.631a2.644,2.644,0,1,0,0,5.288H57.526a2.644,2.644,0,0,0,0-5.288Z" transform="translate(0 0.005)" fill="#734fb1" fill-rule="evenodd"/>
    <path id="Path_13638" data-name="Path 13638" d="M48.509,28a2.644,2.644,0,1,0,0,5.288H98.746v5.288H43.22a2.644,2.644,0,1,0,0,5.288h58.17a2.644,2.644,0,0,0,2.644-2.644V30.647A2.644,2.644,0,0,0,101.39,28ZM32.644,43.868A2.644,2.644,0,0,0,30,46.512v10.7a2.644,2.644,0,0,0,5.288-.077V46.514a2.644,2.644,0,0,0-2.644-2.644Z" transform="translate(46.034 42.751)" fill="#734fb1" fill-rule="evenodd"/>
    <path id="Path_13639" data-name="Path 13639" d="M32.605,38.033A2.644,2.644,0,0,0,30,40.722a7.972,7.972,0,0,0,7.932,7.811H98.747v5.288H37.933a13.221,13.221,0,0,1-4.408-.756,2.645,2.645,0,0,0-1.763,4.987,18.52,18.52,0,0,0,6.171,1.058h63.458a2.644,2.644,0,0,0,2.644-2.644V45.889a2.644,2.644,0,0,0-2.644-2.644H37.933a2.6,2.6,0,0,1-2.644-2.6,2.644,2.644,0,0,0-2.684-2.607Z" transform="translate(46.034 59.241)" fill="#734fb1" fill-rule="evenodd"/>
    <path id="Path_13640" data-name="Path 13640" d="M59.092,32A2.644,2.644,0,0,0,57,33.053a20.124,20.124,0,0,0-4.5,12.242,20.5,20.5,0,0,0,4.49,12.083,2.644,2.644,0,1,0,4.241-3.157c-2.353-3.16-3.424-6.1-3.443-8.963s1-5.8,3.432-9.016A2.646,2.646,0,0,0,59.092,32Z" transform="translate(83.026 49.328)" fill="#734fb1"/>
    <path id="Path_13641" data-name="Path 13641" d="M22.644,16A2.644,2.644,0,0,0,20,18.647V45.088a13.259,13.259,0,0,0,13.22,13.22,2.644,2.644,0,1,0,0-5.288,7.892,7.892,0,0,1-7.932-7.932v-23.8h2.644a2.644,2.644,0,1,0,0-5.288Zm26.441,0a2.644,2.644,0,0,0,0,5.288h2.644v23.8A7.892,7.892,0,0,1,43.8,53.02a2.644,2.644,0,0,0,0,5.288,13.259,13.259,0,0,0,13.22-13.22V18.647A2.644,2.644,0,0,0,54.373,16Z" transform="translate(29.594 23.022)" fill="#734fb1" fill-rule="evenodd"/>
    <path id="Path_13642" data-name="Path 13642" d="M51.661,32a2.644,2.644,0,0,0-2.644,2.644V90.17a15.865,15.865,0,1,1-31.729,0V71.661a2.644,2.644,0,0,0-5.288,0V90.17a21.153,21.153,0,0,0,42.305,0V34.644A2.644,2.644,0,0,0,51.661,32Z" transform="translate(16.441 49.323)" fill="#734fb1"/>
    <path id="Path_13643" data-name="Path 13643" d="M21.22,38a13.22,13.22,0,1,0,13.22,13.22A13.259,13.259,0,0,0,21.22,38Zm0,5.288a7.932,7.932,0,1,1-7.932,7.932A7.892,7.892,0,0,1,21.22,43.291Z" transform="translate(9.865 59.192)" fill="#734fb1" fill-rule="evenodd"/>
    <path id="Path_13644" data-name="Path 13644" d="M17.288,44.647A2.644,2.644,0,1,1,14.644,42,2.644,2.644,0,0,1,17.288,44.647Z" transform="translate(16.441 65.768)" fill="#734fb1" fill-rule="evenodd"/>
    <path id="Path_13645" data-name="Path 13645" d="M15.22,2A13.247,13.247,0,0,0,2,15.22V25.8a2.644,2.644,0,0,0,2.644,2.644H158a2.644,2.644,0,0,0,2.644-2.644V15.22A13.249,13.249,0,0,0,147.425,2Zm-.063,10.576h.063a2.613,2.613,0,1,1-.063,0Zm10.576,0H25.8a2.613,2.613,0,1,1-.063,0Zm10.576,0h.063a2.613,2.613,0,1,1-.063,0Zm15.928,0h95.187a2.644,2.644,0,1,1,0,5.288H52.238a2.644,2.644,0,1,1,0-5.288ZM68.1,70.754a7.932,7.932,0,1,0,7.932,7.932A7.973,7.973,0,0,0,68.1,70.754Z" transform="translate(0)" fill="#734fb1" fill-rule="evenodd"/>
    <path id="Path_13646" data-name="Path 13646" d="M34.572,48a2.644,2.644,0,0,0-2.039,4.236A19.688,19.688,0,0,1,35.966,63.9a20.19,20.19,0,0,1-3.443,11.6,2.644,2.644,0,1,0,4.241,3.157,24.981,24.981,0,0,0,4.49-14.735,24.544,24.544,0,0,0-4.5-14.878A2.644,2.644,0,0,0,34.572,48Z" transform="translate(49.323 75.627)" fill="#734fb1"/>
    <path id="Path_13647" data-name="Path 13647" d="M32.644,46A2.644,2.644,0,0,0,30,48.644v5.288a2.644,2.644,0,0,0,2.644,2.644h66.1a5.25,5.25,0,0,1,5.288,5.288V72.441a5.25,5.25,0,0,1-5.288,5.288h-66.1A2.644,2.644,0,0,0,30,80.373v5.288a2.644,2.644,0,0,0,2.644,2.644h66.1a15.9,15.9,0,0,0,15.865-15.865V61.865A15.9,15.9,0,0,0,98.746,46Z" transform="translate(46.034 72.34)" fill="#734fb1" fill-rule="evenodd"/>
  </g>
</svg>
