<svg xmlns="http://www.w3.org/2000/svg" width="243.997" height="243.997" viewBox="0 0 243.997 243.997">
  <g id="Group_2846" data-name="Group 2846" transform="translate(-1042.003 -1941.003)">
    <path id="Path_13574" data-name="Path 13574" d="M197.2,128.065H172.8v-9.317a64.226,64.226,0,0,0,49.576-44.44l3.111-10.11a4.067,4.067,0,0,0-2.9-5.14l-4.62-1.155,6.023-22.082a20.333,20.333,0,0,0-19.617-25.689h-7.918A12.183,12.183,0,0,0,185,2h-8.133a8.141,8.141,0,0,0-8.133,8.133v8.133a8.141,8.141,0,0,0,8.133,8.133H185a12.183,12.183,0,0,0,11.452-8.133h7.918a12.2,12.2,0,0,1,11.773,15.408l-6.067,22.248-3.753-.939a4.09,4.09,0,0,0-4.88,2.778l-2.851,9.5a39.7,39.7,0,0,1-4.921,10.447,4.066,4.066,0,1,0,6.783,4.485,47.631,47.631,0,0,0,5.929-12.6l1.736-5.787,8.341,2.086-1.85,6.01a56.5,56.5,0,0,1-108.009,0l-1.85-6.01,8.341-2.086,1.736,5.787a47.737,47.737,0,0,0,73.227,25.351,4.069,4.069,0,0,0-4.681-6.657,39.447,39.447,0,0,1-18.71,7V38.6a4.065,4.065,0,0,0-4.067-4.067H127.569A11.221,11.221,0,0,0,116.821,26.4a10.5,10.5,0,0,1-8.572-4.5,12.054,12.054,0,0,1,8.581-3.631h7.918A12.183,12.183,0,0,0,136.2,26.4h8.133a8.141,8.141,0,0,0,8.133-8.133V10.133A8.141,8.141,0,0,0,144.331,2H136.2a12.183,12.183,0,0,0-11.452,8.133h-7.918a20.142,20.142,0,0,0-13.473,5.132,18.629,18.629,0,0,0-12.85-5.132H76.163a18.684,18.684,0,0,0-16.8,10.382A10.6,10.6,0,0,1,49.84,26.4a11.221,11.221,0,0,0-10.748,8.133H6.067A4.065,4.065,0,0,0,2,38.6V241.93A4.066,4.066,0,0,0,6.067,246h24.4a4.067,4.067,0,0,0,0-8.133H10.133V42.666H39.092A11.221,11.221,0,0,0,49.84,50.8h39.67a4.067,4.067,0,0,0,0-8.133H49.84a3.112,3.112,0,0,1-3.107-3.107V37.64a3.112,3.112,0,0,1,3.107-3.107,18.684,18.684,0,0,0,16.8-10.382,10.587,10.587,0,0,1,9.52-5.884H90.5a10.555,10.555,0,0,1,7.926,3.562,20.177,20.177,0,0,0-1.22,13.989L103.23,57.9l-4.62,1.155a4.067,4.067,0,0,0-2.9,5.14L98.818,74.3a64.226,64.226,0,0,0,49.576,44.44v9.321H103.665a48.819,48.819,0,0,0-48.714,47.1,32.525,32.525,0,1,0,24.4.061,24.413,24.413,0,0,1,24.318-22.757H148.4v24.4a48.506,48.506,0,0,0,8.133,26.917v34.082H46.733a4.067,4.067,0,0,0,0,8.133H160.6a4.066,4.066,0,0,0,4.067-4.067v-28.8A48.768,48.768,0,1,0,197.2,128.065ZM185,18.266h-8.133V10.133H185a4.067,4.067,0,1,1,0,8.133Zm-48.8-8.133h8.133l0,8.133H136.2a4.067,4.067,0,0,1,0-8.133Zm-19.373,24.4a3.112,3.112,0,0,1,3.107,3.107v1.919a3.112,3.112,0,0,1-3.107,3.107h-9.317l-2.452-8.991a12.1,12.1,0,0,1-.366-3.587A18.693,18.693,0,0,0,116.825,34.533Zm-7.1,16.266h7.1a11.221,11.221,0,0,0,10.748-8.133h28.958V95.3a39.371,39.371,0,0,1-33.92-28.035l-2.851-9.5a4.087,4.087,0,0,0-4.88-2.777l-3.753.939Zm46.8,68.97c1.35.081,2.7.163,4.067.163s2.716-.081,4.067-.163v8.3h-8.133ZM91.465,205.33a24.4,24.4,0,1,1-24.4-24.4A24.424,24.424,0,0,1,91.465,205.33ZM197.2,217.53a40.712,40.712,0,0,1-40.666-40.666v-24.4H197.2a24.4,24.4,0,1,1-24.4,24.4v-12.2a4.067,4.067,0,1,0-8.133,0v12.2A32.533,32.533,0,1,0,197.2,144.331H103.665a32.571,32.571,0,0,0-32.3,28.783,29.548,29.548,0,0,0-8.17-.065A40.71,40.71,0,0,1,103.665,136.2H197.2a40.666,40.666,0,0,1,0,81.332Z" transform="translate(1040.003 1939.003)" fill="#1d8019"/>
    <path id="Path_13575" data-name="Path 13575" d="M14,64.266A16.266,16.266,0,1,0,30.266,48,16.283,16.283,0,0,0,14,64.266Zm24.4,0a8.133,8.133,0,1,1-8.133-8.133A8.141,8.141,0,0,1,38.4,64.266Z" transform="translate(1076.803 2080.067)" fill="#1d8019"/>
    <path id="Path_13576" data-name="Path 13576" d="M52.766,17H32.433a4.065,4.065,0,0,0-4.067,4.067v18.3h-18.3A4.065,4.065,0,0,0,6,43.433V63.766a4.065,4.065,0,0,0,4.067,4.067h18.3v18.3A4.065,4.065,0,0,0,32.433,90.2H52.766a4.065,4.065,0,0,0,4.067-4.067v-18.3h18.3A4.065,4.065,0,0,0,79.2,63.766V43.433a4.065,4.065,0,0,0-4.067-4.067h-18.3v-18.3A4.065,4.065,0,0,0,52.766,17Zm18.3,30.5V59.7h-18.3A4.065,4.065,0,0,0,48.7,63.766v18.3H36.5v-18.3A4.065,4.065,0,0,0,32.433,59.7h-18.3V47.5h18.3A4.065,4.065,0,0,0,36.5,43.433v-18.3H48.7v18.3A4.065,4.065,0,0,0,52.766,47.5Z" transform="translate(1052.27 1985.003)" fill="#1d8019"/>
    <path id="Path_13577" data-name="Path 13577" d="M10.067,45.133h24.4a4.067,4.067,0,1,0,0-8.133h-24.4a4.067,4.067,0,1,0,0,8.133Z" transform="translate(1052.27 2046.335)" fill="#1d8019"/>
    <path id="Path_13578" data-name="Path 13578" d="M10.067,49.133H26.333a4.067,4.067,0,0,0,0-8.133H10.067a4.067,4.067,0,1,0,0,8.133Z" transform="translate(1052.27 2058.601)" fill="#1d8019"/>
  </g>
</svg>
