<svg id="noun-love-10220" xmlns="http://www.w3.org/2000/svg" width="194.317" height="141.502" viewBox="0 0 194.317 141.502">
  <g id="Group_2999" data-name="Group 2999" transform="translate(0 0)">
    <path id="Path_13683" data-name="Path 13683" d="M83.728,120.561c-5.96-3.067-40.019-20.58-61.307-31.527h0C7.96,81.62-.018,67.923,0,53.835H0A38.348,38.348,0,0,1,4.356,36.164h0A38.613,38.613,0,0,1,38.717,15.259h0a38.337,38.337,0,0,1,14.719,2.92h0A38.669,38.669,0,0,1,86.252,0h0a38.52,38.52,0,0,1,17.556,4.236h0a39.2,39.2,0,0,1,9.338,6.646h.007l-4.784,4.992a32.449,32.449,0,0,0-7.7-5.476h0a31.56,31.56,0,0,0-14.413-3.48h0A31.746,31.746,0,0,0,57.947,24.231h0l-1.586,3.1-3.079-1.59A31.59,31.59,0,0,0,38.717,22.17h0A31.753,31.753,0,0,0,10.493,39.346h0a31.425,31.425,0,0,0-3.579,14.5h0c.021,11.491,6.375,22.7,18.67,29.049h0c18.861,9.7,47.744,24.549,58.233,29.946h0c5.386-10.5,20.227-39.376,29.923-58.237h0a36.114,36.114,0,0,0,4.063-15.45h0l6.909.166a42.751,42.751,0,0,1-4.826,18.446h0c-10.945,21.285-28.434,55.34-31.5,61.307h0L86.8,122.144l-3.072-1.583Z" transform="translate(0 0)" fill="#ffbb1b"/>
  </g>
  <g id="Group_3000" data-name="Group 3000" transform="translate(70.127 19.414)">
    <path id="Path_13684" data-name="Path 13684" d="M64.157,127.385q-5.03-10.6-10.027-21.191h0l6.239-2.959q4.276,9.023,8.557,18.061h0c10.663-5.054,40.006-18.955,59.164-28.026h0c12.857-6.119,19.594-17.591,19.614-29.432h0a31.569,31.569,0,0,0-3.111-13.609h0a31.759,31.759,0,0,0-28.678-18.1h0a31.687,31.687,0,0,0-13.646,3.107h0l-3.146,1.5-1.48-3.148A31.724,31.724,0,0,0,68.9,15.345h0A31.47,31.47,0,0,0,55.4,18.375h0a31.1,31.1,0,0,0-18.061,28.45h0a35.786,35.786,0,0,0,3.572,15.323h0c2.848,6.114,5.789,12.217,8.693,18.361h0l-6.255,2.952c-2.883-6.107-5.838-12.219-8.7-18.377h0a42.557,42.557,0,0,1-4.222-18.259h0a38.024,38.024,0,0,1,22.027-34.7h0A38.379,38.379,0,0,1,68.9,8.424h0a38.69,38.69,0,0,1,33.463,19.264h0a38.278,38.278,0,0,1,13.556-2.473h0a38.7,38.7,0,0,1,34.924,22.037h0a38.584,38.584,0,0,1,3.782,16.584h0c.028,14.514-8.437,28.542-23.569,35.68h0c-21.626,10.235-56.225,26.641-62.286,29.513h0l-3.125,1.484-1.482-3.127Zm-10.032-21.2a.011.011,0,0,0,0,.007h0v-.007Z" transform="translate(-30.429 -8.424)" fill="#ffbb1b"/>
  </g>
</svg>
