<svg xmlns="http://www.w3.org/2000/svg" width="37.554" height="45.926" viewBox="0 0 37.554 45.926">
  <g id="noun-mental-health-4155795" transform="translate(-13.195 -4.954)">
    <path id="Path_13428" data-name="Path 13428" d="M43.589,23.969a5.332,5.332,0,0,0-5.018,1.219,5.321,5.321,0,0,0-5.011-1.224,4.831,4.831,0,0,0-3.626,4.8c0,3.017,2.811,5.765,6.37,9.243.488.477.991.969,1.5,1.48l.765.756.763-.756c.51-.507,1.014-1,1.5-1.475,3.56-3.479,6.372-6.224,6.372-9.245a4.822,4.822,0,0,0-3.621-4.792ZM39.325,36.453q-.371.361-.752.735-.381-.375-.754-.738c-3.068-3-5.718-5.588-5.718-7.694a2.653,2.653,0,0,1,2.025-2.7,3.283,3.283,0,0,1,.852-.112,3.01,3.01,0,0,1,2.66,1.508l.935,1.6.935-1.6a3.13,3.13,0,0,1,3.52-1.389,2.646,2.646,0,0,1,2.018,2.7C45.045,30.863,42.394,33.453,39.325,36.453Z" transform="translate(-8.198 -9.219)" fill="#0066a4"/>
    <path id="Path_13429" data-name="Path 13429" d="M50.556,30.867l-3.247-6.616a17.742,17.742,0,0,0,.162-2.2A17.138,17.138,0,1,0,17.216,33.123a5.882,5.882,0,0,1,1.322,3.792v11.91A2.056,2.056,0,0,0,20.6,50.88H35.167a2.057,2.057,0,0,0,2.055-2.054V44.078h3.8a6.406,6.406,0,0,0,6.4-6.4V34.495l2.254-1.085a1.9,1.9,0,0,0,.879-2.543Zm-5.3,2.267v4.547a4.239,4.239,0,0,1-4.235,4.235H35.054v6.8H20.7v-11.8a8.047,8.047,0,0,0-1.831-5.184,14.964,14.964,0,1,1,26.433-9.672,17.941,17.941,0,0,1-.185,2.245l-.04.321,3.412,6.953Z" transform="translate(0 0)" fill="#0066a4"/>
  </g>
</svg>
