<svg xmlns="http://www.w3.org/2000/svg" width="44.93" height="42" viewBox="0 0 44.93 42">
  <path id="noun-doctor-1740508" d="M705.086,577.22a5.861,5.861,0,1,1,1.954,0,13.186,13.186,0,0,1-26.366-.408v-2.442c0-.011,0-.021,0-.032A14.652,14.652,0,0,1,667,559.721v-7.814a3.905,3.905,0,1,1,1.954,3.384v4.43a12.7,12.7,0,0,0,25.4,0v-4.43a3.908,3.908,0,1,1,1.953-3.384v7.814a14.652,14.652,0,0,1-13.675,14.619c0,.011,0,.021,0,.032v2.442a11.233,11.233,0,0,0,22.458.406ZM692.4,553.86a1.953,1.953,0,1,0-1.953-1.954A1.954,1.954,0,0,0,692.4,553.86Zm-21.488,0a1.953,1.953,0,1,0-1.953-1.954A1.954,1.954,0,0,0,670.907,553.86Zm35.163,21.488a3.907,3.907,0,1,0-3.907-3.907A3.907,3.907,0,0,0,706.07,575.349Z" transform="translate(-667 -548)" fill="#0066a4"/>
</svg>
