<svg xmlns="http://www.w3.org/2000/svg" width="40" height="37.053" viewBox="0 0 40 37.053">
  <g id="Layer_4" data-name="Layer 4" transform="translate(-3.49 -4.41)">
    <path id="Path_13624" data-name="Path 13624" d="M39.138,4.41H11.666A4.336,4.336,0,0,0,7.41,7.9a4.288,4.288,0,0,0-3.92,4.24v17.3a4.32,4.32,0,0,0,4.352,4.272H9.3V40.7a.784.784,0,0,0,.5.752.928.928,0,0,0,.3,0,.816.816,0,0,0,.608-.192l7.008-7.552h17.6a4.32,4.32,0,0,0,4.256-3.488,4.32,4.32,0,0,0,3.92-4.24V8.73a4.352,4.352,0,0,0-4.352-4.32ZM38.082,29.434a2.7,2.7,0,0,1-2.736,2.672h-18a.832.832,0,0,0-.592.256l-5.856,6.3v-5.76a.8.8,0,0,0-.8-.8H7.842A2.72,2.72,0,0,1,5.09,29.434v-17.3A2.72,2.72,0,0,1,7.842,9.45h27.5a2.72,2.72,0,0,1,2.736,2.688Zm3.84-3.456a2.688,2.688,0,0,1-2.24,2.608V12.138A4.32,4.32,0,0,0,35.346,7.85H9.106a2.736,2.736,0,0,1,2.56-1.84H39.138a2.752,2.752,0,0,1,2.784,2.72Z" transform="translate(0)" fill="#0066a4"/>
  </g>
</svg>
