<svg xmlns="http://www.w3.org/2000/svg" width="40.052" height="44.5" viewBox="0 0 40.052 44.5">
  <g id="noun-friend-4464225" transform="translate(-12.42 -8.765)">
    <path id="Path_13425" data-name="Path 13425" d="M42.384,28.859h.867a1.341,1.341,0,0,1,1.223.733l6.221,10.964a.73.73,0,0,1,.1.66.821.821,0,0,1-.411.443,1.113,1.113,0,0,1-1.507-.506L44.7,35.25a.694.694,0,0,0-1.252.513l1.15,7.12,1.631,14.981a.361.361,0,0,1-.188.433,1.632,1.632,0,0,1-.876.217,2.292,2.292,0,0,1-1.067-.267.972.972,0,0,1-.513-.618c-.746-3.128-1.641-6.868-2.294-9.707a1.626,1.626,0,0,0-.363-.793,1.224,1.224,0,0,0-1.8-.007,1.39,1.39,0,0,0-.36.8L37.615,57.71a.716.716,0,0,1-.4.564,2.1,2.1,0,0,1-1.02.257,1.788,1.788,0,0,1-.939-.235.462.462,0,0,1-.261-.484l.472-13.84a.472.472,0,0,0,0-.093l-1.041-11a.693.693,0,0,0-.465-.592l-1.624-.565a4.964,4.964,0,0,1,1.691-1.4,11,11,0,0,1,1.587-.726,2.048,2.048,0,0,1,1.1-.127,10.793,10.793,0,0,0,2.16.353A7.411,7.411,0,0,0,42.384,28.859Zm-10.433-.649a7.245,7.245,0,0,1,.825.019,8.965,8.965,0,0,1,1.475.472c-.309.144-.612.242-.92.421a7.307,7.307,0,0,0-1.7,1.235,3.315,3.315,0,0,0-1.057,1.717l-1.15,11.9.475,13.84a.472.472,0,0,1-.262.484,1.794,1.794,0,0,1-.939.235,2.1,2.1,0,0,1-1.02-.257.712.712,0,0,1-.4-.564l-1.153-9.789a1.4,1.4,0,0,0-.363-.8,1.225,1.225,0,0,0-1.8.007,1.626,1.626,0,0,0-.36.793l-2.294,9.707a.967.967,0,0,1-.516.618,2.278,2.278,0,0,1-1.064.267,1.615,1.615,0,0,1-.876-.217.363.363,0,0,1-.191-.433l1.631-14.981,1.15-7.12a.694.694,0,0,0-1.253-.513l-4.176,5.9a1.112,1.112,0,0,1-1.506.506.821.821,0,0,1-.411-.443.742.742,0,0,1,.1-.66l6.221-10.963a1.348,1.348,0,0,1,1.226-.733h.866a7.411,7.411,0,0,0,3.507.962,7.635,7.635,0,0,0,3.854-1.057A4.568,4.568,0,0,1,31.951,28.211Zm.418-1.415a6.075,6.075,0,0,0-3.195.774,6.261,6.261,0,0,1-3.156.867,6.1,6.1,0,0,1-3.147-.864.652.652,0,0,0-.36-.1h-.866A2.793,2.793,0,0,0,19.214,28.9L12.992,39.871a2.112,2.112,0,0,0,.889,3.023,2.594,2.594,0,0,0,3.268-.942L19.6,38.493l-.675,4.186L17.286,57.713a1.88,1.88,0,0,0,.761,1.711,2.847,2.847,0,0,0,1.692.481,3.579,3.579,0,0,0,1.745-.459,2.386,2.386,0,0,0,1.172-1.5l2.169-9.186,1.07,9.11a2.186,2.186,0,0,0,1.061,1.583,3.307,3.307,0,0,0,1.742.465,3.053,3.053,0,0,0,1.714-.478,1.972,1.972,0,0,0,.873-1.678l-.475-13.793,1.067-10.929,1.2.414,1,10.509-.475,13.8a1.985,1.985,0,0,0,.873,1.678,3.057,3.057,0,0,0,1.717.478,3.319,3.319,0,0,0,1.742-.465A2.193,2.193,0,0,0,39,57.873l1.073-9.1,2.167,9.179a2.387,2.387,0,0,0,1.172,1.5,3.58,3.58,0,0,0,1.746.459,2.828,2.828,0,0,0,1.688-.481,1.881,1.881,0,0,0,.764-1.711l-1.631-15L45.3,38.493l2.446,3.459a2.6,2.6,0,0,0,3.268.942,2.112,2.112,0,0,0,.889-3.023L45.677,28.9a2.782,2.782,0,0,0-2.427-1.431h-.867a.665.665,0,0,0-.363.1,6.086,6.086,0,0,1-3.147.864,5.774,5.774,0,0,1-2.055-.331,11.859,11.859,0,0,0-3.944-1.287C32.7,26.805,32.535,26.8,32.369,26.8Z" transform="translate(0 -6.906)" fill="#0066a4" stroke="#0066a4" stroke-width="0.5" fill-rule="evenodd"/>
    <path id="Path_13426" data-name="Path 13426" d="M30.924,10.4c2.408,0,4.227,1.615,4.227,3.506v1.72c0,1.892-1.819,3.513-4.227,3.513S26.7,17.52,26.7,15.628v-1.72C26.7,12.016,28.515,10.4,30.924,10.4Zm0-1.386c-3.045,0-5.613,2.131-5.613,4.893v1.72c0,2.764,2.568,4.9,5.613,4.9s5.613-2.134,5.613-4.9v-1.72C36.536,11.146,33.965,9.015,30.924,9.015Z" transform="translate(-4.906)" fill="#0066a4" stroke="#0066a4" stroke-width="0.5" fill-rule="evenodd"/>
    <path id="Path_13427" data-name="Path 13427" d="M51.947,10.4c2.408,0,4.227,1.615,4.227,3.506v1.72c0,1.892-1.818,3.513-4.227,3.513s-4.224-1.621-4.224-3.513v-1.72C47.722,12.016,49.541,10.4,51.947,10.4Zm0-1.386c-3.043,0-5.61,2.131-5.61,4.893v1.72c0,2.764,2.567,4.9,5.61,4.9s5.619-2.134,5.619-4.9v-1.72C57.565,11.146,54.992,9.015,51.947,9.015Z" transform="translate(-13.073)" fill="#0066a4" stroke="#0066a4" stroke-width="0.5" fill-rule="evenodd"/>
  </g>
</svg>
